<!DOCTYPE svg PUBLIC "-//W3C//DTD SVG 20010904//EN" "http://www.w3.org/TR/2001/REC-SVG-20010904/DTD/svg10.dtd">
<svg version="1.0" xmlns="http://www.w3.org/2000/svg" width="128px" height="128px" viewBox="0 0 1280 1280" preserveAspectRatio="xMidYMid meet">
<g id="layer101" fill="#7fec71" stroke="none">
 <path d="M417 1273 c-17 -16 -6 -43 21 -49 249 -53 379 -103 457 -175 67 -62 88 -108 83 -184 -7 -117 -88 -180 -221 -174 -60 4 -87 11 -162 47 -105 51 -214 130 -274 202 -37 44 -47 51 -74 48 -46 -4 -57 -34 -57 -160 0 -118 25 -270 66 -400 30 -95 50 -102 59 -24 8 65 4 114 -19 217 -9 43 -16 106 -14 142 l3 66 85 -56 c98 -64 224 -125 292 -142 26 -6 83 -11 127 -11 134 0 226 47 281 143 26 45 30 62 30 127 0 202 -157 320 -500 375 -101 16 -172 19 -183 8z"/>
 <path d="M426 285 c-13 -35 -5 -45 55 -63 l61 -19 -35 -22 c-41 -25 -103 -91 -119 -127 -10 -20 -8 -27 7 -38 17 -12 24 -10 64 25 58 51 149 94 231 108 86 14 115 36 115 87 l0 39 -125 -3 c-110 -3 -182 4 -232 23 -9 4 -18 -1 -22 -10z"/>
 </g>

</svg>